<mxfile host="65bd71144e">
    <diagram id="9OvPYctcPZ2iyCh4Y7nA" name="第 1 页">
        <mxGraphModel dx="1902" dy="1657" grid="1" gridSize="10" guides="1" tooltips="1" connect="1" arrows="1" fold="1" page="1" pageScale="1" pageWidth="827" pageHeight="1169" math="0" shadow="0">
            <root>
                <mxCell id="0"/>
                <mxCell id="1" parent="0"/>
                <mxCell id="4" value="" style="swimlane;whiteSpace=wrap;html=1;" parent="1" vertex="1">
                    <mxGeometry x="470" y="350" width="210" height="680" as="geometry">
                        <mxRectangle x="360" y="130" width="50" height="40" as="alternateBounds"/>
                    </mxGeometry>
                </mxCell>
                <mxCell id="6" value="+DeathRecord" style="rounded=0;whiteSpace=wrap;html=1;align=left;" parent="4" vertex="1">
                    <mxGeometry x="21" y="40" width="179" height="30" as="geometry"/>
                </mxCell>
                <mxCell id="7" value="+DosingRecord&lt;span style=&quot;color: rgba(0, 0, 0, 0); font-family: monospace; font-size: 0px;&quot;&gt;%3CmxGraphModel%3E%3Croot%3E%3CmxCell%20id%3D%220%22%2F%3E%3CmxCell%20id%3D%221%22%20parent%3D%220%22%2F%3E%3CmxCell%20id%3D%222%22%20value%3D%22%2BDeathRecord%22%20style%3D%22rounded%3D0%3BwhiteSpace%3Dwrap%3Bhtml%3D1%3Balign%3Dleft%3B%22%20vertex%3D%221%22%20parent%3D%221%22%3E%3CmxGeometry%20x%3D%22381%22%20y%3D%22230%22%20width%3D%22150%22%20height%3D%2230%22%20as%3D%22geometry%22%2F%3E%3C%2FmxCell%3E%3C%2Froot%3E%3C%2FmxGraphModel%3E&lt;/span&gt;&lt;span style=&quot;color: rgba(0, 0, 0, 0); font-family: monospace; font-size: 0px;&quot;&gt;%3CmxGraphModel%3E%3Croot%3E%3CmxCell%20id%3D%220%22%2F%3E%3CmxCell%20id%3D%221%22%20parent%3D%220%22%2F%3E%3CmxCell%20id%3D%222%22%20value%3D%22%2BDeathRecord%22%20style%3D%22rounded%3D0%3BwhiteSpace%3Dwrap%3Bhtml%3D1%3Balign%3Dleft%3B%22%20vertex%3D%221%22%20parent%3D%221%22%3E%3CmxGeometry%20x%3D%22381%22%20y%3D%22230%22%20width%3D%22150%22%20height%3D%2230%22%20as%3D%22geometry%22%2F%3E%3C%2FmxCell%3E%3C%2Froot%3E%3C%2FmxGraphModel%3E&lt;/span&gt;&lt;font face=&quot;monospace&quot; color=&quot;rgba(0, 0, 0, 0)&quot;&gt;&lt;span style=&quot;font-size: 0px;&quot;&gt;DosingRecordControllerDosong&lt;/span&gt;&lt;/font&gt;" style="rounded=0;whiteSpace=wrap;html=1;align=left;" vertex="1" parent="4">
                    <mxGeometry x="21" y="70" width="179" height="30" as="geometry"/>
                </mxCell>
                <mxCell id="9" value="+EggProductionRecord" style="rounded=0;whiteSpace=wrap;html=1;align=left;" vertex="1" parent="4">
                    <mxGeometry x="21" y="100" width="179" height="30" as="geometry"/>
                </mxCell>
                <mxCell id="10" value="+FeedRecord" style="rounded=0;whiteSpace=wrap;html=1;align=left;" vertex="1" parent="4">
                    <mxGeometry x="21" y="130" width="179" height="30" as="geometry"/>
                </mxCell>
                <mxCell id="11" value="+FertilizationRecord" style="rounded=0;whiteSpace=wrap;html=1;align=left;" vertex="1" parent="4">
                    <mxGeometry x="21" y="160" width="179" height="30" as="geometry"/>
                </mxCell>
                <mxCell id="12" value="+IndividualDeathRcord" style="rounded=0;whiteSpace=wrap;html=1;align=left;" vertex="1" parent="4">
                    <mxGeometry x="21" y="190" width="179" height="30" as="geometry"/>
                </mxCell>
                <mxCell id="13" value="+BatchInfo" style="rounded=0;whiteSpace=wrap;html=1;align=left;" vertex="1" parent="4">
                    <mxGeometry x="21" y="220" width="179" height="30" as="geometry"/>
                </mxCell>
                <mxCell id="14" value="+FeedInfo" style="rounded=0;whiteSpace=wrap;html=1;align=left;" vertex="1" parent="4">
                    <mxGeometry x="21" y="250" width="179" height="30" as="geometry"/>
                </mxCell>
                <mxCell id="15" value="+GoodsInfo" style="rounded=0;whiteSpace=wrap;html=1;align=left;" vertex="1" parent="4">
                    <mxGeometry x="21" y="280" width="179" height="30" as="geometry"/>
                </mxCell>
                <mxCell id="17" value="+MedicineInfo" style="rounded=0;whiteSpace=wrap;html=1;align=left;" vertex="1" parent="4">
                    <mxGeometry x="21" y="310" width="179" height="30" as="geometry"/>
                </mxCell>
                <mxCell id="18" value="+MessageInfo" style="rounded=0;whiteSpace=wrap;html=1;align=left;" vertex="1" parent="4">
                    <mxGeometry x="21" y="340" width="179" height="30" as="geometry"/>
                </mxCell>
                <mxCell id="19" value="+PrivilegeTable" style="rounded=0;whiteSpace=wrap;html=1;align=left;" vertex="1" parent="4">
                    <mxGeometry x="21" y="370" width="179" height="30" as="geometry"/>
                </mxCell>
                <mxCell id="20" value="+RolePri" style="rounded=0;whiteSpace=wrap;html=1;align=left;" vertex="1" parent="4">
                    <mxGeometry x="21" y="400" width="179" height="30" as="geometry"/>
                </mxCell>
                <mxCell id="21" value="+UserBasicInfo" style="rounded=0;whiteSpace=wrap;html=1;align=left;" vertex="1" parent="4">
                    <mxGeometry x="21" y="430" width="179" height="30" as="geometry"/>
                </mxCell>
                <mxCell id="22" value="+UserPasswordInfo" style="rounded=0;whiteSpace=wrap;html=1;align=left;" vertex="1" parent="4">
                    <mxGeometry x="21" y="460" width="179" height="30" as="geometry"/>
                </mxCell>
                <mxCell id="23" value="+UserRole" style="rounded=0;whiteSpace=wrap;html=1;align=left;" vertex="1" parent="4">
                    <mxGeometry x="21" y="490" width="179" height="30" as="geometry"/>
                </mxCell>
                <mxCell id="24" value="+IncomingRecord" style="rounded=0;whiteSpace=wrap;html=1;align=left;" vertex="1" parent="4">
                    <mxGeometry x="21" y="520" width="179" height="30" as="geometry"/>
                </mxCell>
                <mxCell id="25" value="+OutputRecord" style="rounded=0;whiteSpace=wrap;html=1;align=left;" vertex="1" parent="4">
                    <mxGeometry x="21" y="550" width="179" height="30" as="geometry"/>
                </mxCell>
                <mxCell id="26" value="+TransportRecord" style="rounded=0;whiteSpace=wrap;html=1;align=left;" vertex="1" parent="4">
                    <mxGeometry x="21" y="580" width="179" height="30" as="geometry"/>
                </mxCell>
                <mxCell id="27" value="+WorkflowInfo" style="rounded=0;whiteSpace=wrap;html=1;align=left;" vertex="1" parent="4">
                    <mxGeometry x="21" y="610" width="179" height="30" as="geometry"/>
                </mxCell>
                <mxCell id="28" value="+WorkItem" style="rounded=0;whiteSpace=wrap;html=1;align=left;" vertex="1" parent="4">
                    <mxGeometry x="21" y="640" width="179" height="30" as="geometry"/>
                </mxCell>
                <mxCell id="29" value="Entity" style="rounded=0;whiteSpace=wrap;html=1;" vertex="1" parent="1">
                    <mxGeometry x="470" y="330" width="80" height="20" as="geometry"/>
                </mxCell>
                <mxCell id="30" value="" style="swimlane;whiteSpace=wrap;html=1;" vertex="1" parent="1">
                    <mxGeometry x="-133" y="300" width="210" height="680" as="geometry">
                        <mxRectangle x="360" y="130" width="50" height="40" as="alternateBounds"/>
                    </mxGeometry>
                </mxCell>
                <mxCell id="31" value="+DeathRecord&lt;span style=&quot;text-align: center;&quot;&gt;Controller&lt;/span&gt;" style="rounded=0;whiteSpace=wrap;html=1;align=left;" vertex="1" parent="30">
                    <mxGeometry x="21" y="40" width="179" height="30" as="geometry"/>
                </mxCell>
                <mxCell id="32" value="+DosingRecord&lt;span style=&quot;color: rgba(0, 0, 0, 0); font-family: monospace; font-size: 0px;&quot;&gt;%3CmxGraphModel%3E%3Croot%3E%3CmxCell%20id%3D%220%22%2F%3E%3CmxCell%20id%3D%221%22%20parent%3D%220%22%2F%3E%3CmxCell%20id%3D%222%22%20value%3D%22%2BDeathRecord%22%20style%3D%22rounded%3D0%3BwhiteSpace%3Dwrap%3Bhtml%3D1%3Balign%3Dleft%3B%22%20vertex%3D%221%22%20parent%3D%221%22%3E%3CmxGeometry%20x%3D%22381%22%20y%3D%22230%22%20width%3D%22150%22%20height%3D%2230%22%20as%3D%22geometry%22%2F%3E%3C%2FmxCell%3E%3C%2Froot%3E%3C%2FmxGraphModel%3E&lt;/span&gt;&lt;span style=&quot;color: rgba(0, 0, 0, 0); font-family: monospace; font-size: 0px;&quot;&gt;%3CmxGraphModel%3E%3Croot%3E%3CmxCell%20id%3D%220%22%2F%3E%3CmxCell%20id%3D%221%22%20parent%3D%220%22%2F%3E%3CmxCell%20id%3D%222%22%20value%3D%22%2BDeathRecord%22%20style%3D%22rounded%3D0%3BwhiteSpace%3Dwrap%3Bhtml%3D1%3Balign%3Dleft%3B%22%20vertex%3D%221%22%20parent%3D%221%22%3E%3CmxGeometry%20x%3D%22381%22%20y%3D%22230%22%20width%3D%22150%22%20height%3D%2230%22%20as%3D%22geometry%22%2F%3E%3C%2FmxCell%3E%3C%2Froot%3E%3C%2FmxGraphModel%3E&lt;/span&gt;&lt;font face=&quot;monospace&quot; color=&quot;rgba(0, 0, 0, 0)&quot;&gt;&lt;span style=&quot;font-size: 0px;&quot;&gt;DosingRecordControllerDosong&lt;/span&gt;&lt;/font&gt;&lt;span style=&quot;text-align: center;&quot;&gt;Controller&lt;/span&gt;" style="rounded=0;whiteSpace=wrap;html=1;align=left;" vertex="1" parent="30">
                    <mxGeometry x="21" y="70" width="179" height="30" as="geometry"/>
                </mxCell>
                <mxCell id="33" value="+EggProductionRecord&lt;span style=&quot;text-align: center;&quot;&gt;Controller&lt;/span&gt;" style="rounded=0;whiteSpace=wrap;html=1;align=left;" vertex="1" parent="30">
                    <mxGeometry x="21" y="100" width="179" height="30" as="geometry"/>
                </mxCell>
                <mxCell id="34" value="+FeedRecord&lt;span style=&quot;text-align: center;&quot;&gt;Controller&lt;/span&gt;" style="rounded=0;whiteSpace=wrap;html=1;align=left;" vertex="1" parent="30">
                    <mxGeometry x="21" y="130" width="179" height="30" as="geometry"/>
                </mxCell>
                <mxCell id="35" value="+FertilizationRecord&lt;span style=&quot;text-align: center;&quot;&gt;Controller&lt;/span&gt;" style="rounded=0;whiteSpace=wrap;html=1;align=left;" vertex="1" parent="30">
                    <mxGeometry x="21" y="160" width="179" height="30" as="geometry"/>
                </mxCell>
                <mxCell id="36" value="+IndividualDeathRcord&lt;span style=&quot;text-align: center;&quot;&gt;Controller&lt;/span&gt;" style="rounded=0;whiteSpace=wrap;html=1;align=left;" vertex="1" parent="30">
                    <mxGeometry x="21" y="190" width="179" height="30" as="geometry"/>
                </mxCell>
                <mxCell id="37" value="+BatchInfo&lt;span style=&quot;text-align: center;&quot;&gt;Controller&lt;/span&gt;" style="rounded=0;whiteSpace=wrap;html=1;align=left;" vertex="1" parent="30">
                    <mxGeometry x="21" y="220" width="179" height="30" as="geometry"/>
                </mxCell>
                <mxCell id="38" value="+FeedInfo&lt;span style=&quot;text-align: center;&quot;&gt;Controller&lt;/span&gt;" style="rounded=0;whiteSpace=wrap;html=1;align=left;" vertex="1" parent="30">
                    <mxGeometry x="21" y="250" width="179" height="30" as="geometry"/>
                </mxCell>
                <mxCell id="39" value="+GoodsInfo&lt;span style=&quot;text-align: center;&quot;&gt;Controller&lt;/span&gt;" style="rounded=0;whiteSpace=wrap;html=1;align=left;" vertex="1" parent="30">
                    <mxGeometry x="21" y="280" width="179" height="30" as="geometry"/>
                </mxCell>
                <mxCell id="40" value="+MedicineInfo&lt;span style=&quot;text-align: center;&quot;&gt;Controller&lt;/span&gt;" style="rounded=0;whiteSpace=wrap;html=1;align=left;" vertex="1" parent="30">
                    <mxGeometry x="21" y="310" width="179" height="30" as="geometry"/>
                </mxCell>
                <mxCell id="41" value="+MessageInfo&lt;span style=&quot;text-align: center;&quot;&gt;Controller&lt;/span&gt;" style="rounded=0;whiteSpace=wrap;html=1;align=left;" vertex="1" parent="30">
                    <mxGeometry x="21" y="340" width="179" height="30" as="geometry"/>
                </mxCell>
                <mxCell id="42" value="+PrivilegeTable&lt;span style=&quot;text-align: center;&quot;&gt;Controller&lt;/span&gt;" style="rounded=0;whiteSpace=wrap;html=1;align=left;" vertex="1" parent="30">
                    <mxGeometry x="21" y="370" width="179" height="30" as="geometry"/>
                </mxCell>
                <mxCell id="43" value="+RolePri&lt;span style=&quot;text-align: center;&quot;&gt;Controller&lt;/span&gt;" style="rounded=0;whiteSpace=wrap;html=1;align=left;" vertex="1" parent="30">
                    <mxGeometry x="21" y="400" width="179" height="30" as="geometry"/>
                </mxCell>
                <mxCell id="44" value="+UserBasicInfo&lt;span style=&quot;text-align: center;&quot;&gt;Controller&lt;/span&gt;" style="rounded=0;whiteSpace=wrap;html=1;align=left;" vertex="1" parent="30">
                    <mxGeometry x="21" y="430" width="179" height="30" as="geometry"/>
                </mxCell>
                <mxCell id="45" value="+UserPasswordInfo&lt;span style=&quot;text-align: center;&quot;&gt;Controller&lt;/span&gt;" style="rounded=0;whiteSpace=wrap;html=1;align=left;" vertex="1" parent="30">
                    <mxGeometry x="21" y="460" width="179" height="30" as="geometry"/>
                </mxCell>
                <mxCell id="46" value="+UserRole&lt;span style=&quot;text-align: center;&quot;&gt;Controller&lt;/span&gt;" style="rounded=0;whiteSpace=wrap;html=1;align=left;" vertex="1" parent="30">
                    <mxGeometry x="21" y="490" width="179" height="30" as="geometry"/>
                </mxCell>
                <mxCell id="47" value="+IncomingRecord&lt;span style=&quot;text-align: center;&quot;&gt;Controller&lt;/span&gt;" style="rounded=0;whiteSpace=wrap;html=1;align=left;" vertex="1" parent="30">
                    <mxGeometry x="21" y="520" width="179" height="30" as="geometry"/>
                </mxCell>
                <mxCell id="48" value="+OutputRecord&lt;span style=&quot;text-align: center;&quot;&gt;Controller&lt;/span&gt;" style="rounded=0;whiteSpace=wrap;html=1;align=left;" vertex="1" parent="30">
                    <mxGeometry x="21" y="550" width="179" height="30" as="geometry"/>
                </mxCell>
                <mxCell id="49" value="+TransportRecord&lt;span style=&quot;text-align: center;&quot;&gt;Controller&lt;/span&gt;" style="rounded=0;whiteSpace=wrap;html=1;align=left;" vertex="1" parent="30">
                    <mxGeometry x="21" y="580" width="179" height="30" as="geometry"/>
                </mxCell>
                <mxCell id="50" value="+WorkflowInfo&lt;span style=&quot;text-align: center;&quot;&gt;Controller&lt;/span&gt;" style="rounded=0;whiteSpace=wrap;html=1;align=left;" vertex="1" parent="30">
                    <mxGeometry x="21" y="610" width="179" height="30" as="geometry"/>
                </mxCell>
                <mxCell id="51" value="+WorkItem&lt;span style=&quot;text-align: center;&quot;&gt;Controller&lt;/span&gt;" style="rounded=0;whiteSpace=wrap;html=1;align=left;" vertex="1" parent="30">
                    <mxGeometry x="21" y="640" width="179" height="30" as="geometry"/>
                </mxCell>
                <mxCell id="52" value="Controller" style="rounded=0;whiteSpace=wrap;html=1;" vertex="1" parent="1">
                    <mxGeometry x="-53" y="290" width="80" height="20" as="geometry"/>
                </mxCell>
                <mxCell id="76" value="" style="swimlane;whiteSpace=wrap;html=1;" vertex="1" parent="1">
                    <mxGeometry x="-51" y="-450" width="210" height="680" as="geometry">
                        <mxRectangle x="360" y="130" width="50" height="40" as="alternateBounds"/>
                    </mxGeometry>
                </mxCell>
                <mxCell id="77" value="+DeathRecord&lt;span style=&quot;text-align: center;&quot;&gt;Mapper&lt;/span&gt;" style="rounded=0;whiteSpace=wrap;html=1;align=left;" vertex="1" parent="76">
                    <mxGeometry x="21" y="40" width="179" height="30" as="geometry"/>
                </mxCell>
                <mxCell id="78" value="+DosingRecord&lt;span style=&quot;color: rgba(0, 0, 0, 0); font-family: monospace; font-size: 0px;&quot;&gt;%3CmxGraphModel%3E%3Croot%3E%3CmxCell%20id%3D%220%22%2F%3E%3CmxCell%20id%3D%221%22%20parent%3D%220%22%2F%3E%3CmxCell%20id%3D%222%22%20value%3D%22%2BDeathRecord%22%20style%3D%22rounded%3D0%3BwhiteSpace%3Dwrap%3Bhtml%3D1%3Balign%3Dleft%3B%22%20vertex%3D%221%22%20parent%3D%221%22%3E%3CmxGeometry%20x%3D%22381%22%20y%3D%22230%22%20width%3D%22150%22%20height%3D%2230%22%20as%3D%22geometry%22%2F%3E%3C%2FmxCell%3E%3C%2Froot%3E%3C%2FmxGraphModel%3E&lt;/span&gt;&lt;span style=&quot;color: rgba(0, 0, 0, 0); font-family: monospace; font-size: 0px;&quot;&gt;%3CmxGraphModel%3E%3Croot%3E%3CmxCell%20id%3D%220%22%2F%3E%3CmxCell%20id%3D%221%22%20parent%3D%220%22%2F%3E%3CmxCell%20id%3D%222%22%20value%3D%22%2BDeathRecord%22%20style%3D%22rounded%3D0%3BwhiteSpace%3Dwrap%3Bhtml%3D1%3Balign%3Dleft%3B%22%20vertex%3D%221%22%20parent%3D%221%22%3E%3CmxGeometry%20x%3D%22381%22%20y%3D%22230%22%20width%3D%22150%22%20height%3D%2230%22%20as%3D%22geometry%22%2F%3E%3C%2FmxCell%3E%3C%2Froot%3E%3C%2FmxGraphModel%3E&lt;/span&gt;&lt;font face=&quot;monospace&quot; color=&quot;rgba(0, 0, 0, 0)&quot;&gt;&lt;span style=&quot;font-size: 0px;&quot;&gt;DosingRecordControllerDosong&lt;/span&gt;&lt;/font&gt;&lt;span style=&quot;text-align: center;&quot;&gt;Mapper&lt;/span&gt;" style="rounded=0;whiteSpace=wrap;html=1;align=left;" vertex="1" parent="76">
                    <mxGeometry x="21" y="70" width="179" height="30" as="geometry"/>
                </mxCell>
                <mxCell id="79" value="+EggProductionRecord&lt;span style=&quot;text-align: center;&quot;&gt;Mapper&lt;/span&gt;" style="rounded=0;whiteSpace=wrap;html=1;align=left;" vertex="1" parent="76">
                    <mxGeometry x="21" y="100" width="179" height="30" as="geometry"/>
                </mxCell>
                <mxCell id="80" value="+FeedRecord&lt;span style=&quot;text-align: center;&quot;&gt;Mapper&lt;/span&gt;" style="rounded=0;whiteSpace=wrap;html=1;align=left;" vertex="1" parent="76">
                    <mxGeometry x="21" y="130" width="179" height="30" as="geometry"/>
                </mxCell>
                <mxCell id="81" value="+FertilizationRecord&lt;span style=&quot;text-align: center;&quot;&gt;Mapper&lt;/span&gt;" style="rounded=0;whiteSpace=wrap;html=1;align=left;" vertex="1" parent="76">
                    <mxGeometry x="21" y="160" width="179" height="30" as="geometry"/>
                </mxCell>
                <mxCell id="82" value="+IndividualDeathRcord&lt;span style=&quot;text-align: center;&quot;&gt;Mapper&lt;/span&gt;" style="rounded=0;whiteSpace=wrap;html=1;align=left;" vertex="1" parent="76">
                    <mxGeometry x="21" y="190" width="179" height="30" as="geometry"/>
                </mxCell>
                <mxCell id="83" value="+BatchInfo&lt;span style=&quot;text-align: center;&quot;&gt;Mapper&lt;/span&gt;" style="rounded=0;whiteSpace=wrap;html=1;align=left;" vertex="1" parent="76">
                    <mxGeometry x="21" y="220" width="179" height="30" as="geometry"/>
                </mxCell>
                <mxCell id="84" value="+FeedInfo&lt;span style=&quot;text-align: center;&quot;&gt;Mapper&lt;/span&gt;" style="rounded=0;whiteSpace=wrap;html=1;align=left;" vertex="1" parent="76">
                    <mxGeometry x="21" y="250" width="179" height="30" as="geometry"/>
                </mxCell>
                <mxCell id="85" value="+GoodsInfo&lt;span style=&quot;text-align: center;&quot;&gt;Mapper&lt;/span&gt;" style="rounded=0;whiteSpace=wrap;html=1;align=left;" vertex="1" parent="76">
                    <mxGeometry x="21" y="280" width="179" height="30" as="geometry"/>
                </mxCell>
                <mxCell id="86" value="+MedicineInfo&lt;span style=&quot;text-align: center;&quot;&gt;Mapper&lt;/span&gt;" style="rounded=0;whiteSpace=wrap;html=1;align=left;" vertex="1" parent="76">
                    <mxGeometry x="21" y="310" width="179" height="30" as="geometry"/>
                </mxCell>
                <mxCell id="87" value="+MessageInfo&lt;span style=&quot;text-align: center;&quot;&gt;Mapper&lt;/span&gt;" style="rounded=0;whiteSpace=wrap;html=1;align=left;" vertex="1" parent="76">
                    <mxGeometry x="21" y="340" width="179" height="30" as="geometry"/>
                </mxCell>
                <mxCell id="88" value="+PrivilegeTable&lt;span style=&quot;text-align: center;&quot;&gt;Mapper&lt;/span&gt;" style="rounded=0;whiteSpace=wrap;html=1;align=left;" vertex="1" parent="76">
                    <mxGeometry x="21" y="370" width="179" height="30" as="geometry"/>
                </mxCell>
                <mxCell id="89" value="+RolePri&lt;span style=&quot;text-align: center;&quot;&gt;Mapper&lt;/span&gt;" style="rounded=0;whiteSpace=wrap;html=1;align=left;" vertex="1" parent="76">
                    <mxGeometry x="21" y="400" width="179" height="30" as="geometry"/>
                </mxCell>
                <mxCell id="90" value="+UserBasicInfo&lt;span style=&quot;text-align: center;&quot;&gt;Mapper&lt;/span&gt;" style="rounded=0;whiteSpace=wrap;html=1;align=left;" vertex="1" parent="76">
                    <mxGeometry x="21" y="430" width="179" height="30" as="geometry"/>
                </mxCell>
                <mxCell id="91" value="+UserPasswordInfo&lt;span style=&quot;text-align: center;&quot;&gt;Mapper&lt;/span&gt;" style="rounded=0;whiteSpace=wrap;html=1;align=left;" vertex="1" parent="76">
                    <mxGeometry x="21" y="460" width="179" height="30" as="geometry"/>
                </mxCell>
                <mxCell id="92" value="+UserRole&lt;span style=&quot;text-align: center;&quot;&gt;Mapper&lt;/span&gt;" style="rounded=0;whiteSpace=wrap;html=1;align=left;" vertex="1" parent="76">
                    <mxGeometry x="21" y="490" width="179" height="30" as="geometry"/>
                </mxCell>
                <mxCell id="93" value="+IncomingRecord&lt;span style=&quot;text-align: center;&quot;&gt;Mapper&lt;/span&gt;" style="rounded=0;whiteSpace=wrap;html=1;align=left;" vertex="1" parent="76">
                    <mxGeometry x="21" y="520" width="179" height="30" as="geometry"/>
                </mxCell>
                <mxCell id="94" value="+OutputRecord&lt;span style=&quot;text-align: center;&quot;&gt;Mapper&lt;/span&gt;" style="rounded=0;whiteSpace=wrap;html=1;align=left;" vertex="1" parent="76">
                    <mxGeometry x="21" y="550" width="179" height="30" as="geometry"/>
                </mxCell>
                <mxCell id="95" value="+TransportRecord&lt;span style=&quot;text-align: center;&quot;&gt;Mapper&lt;/span&gt;" style="rounded=0;whiteSpace=wrap;html=1;align=left;" vertex="1" parent="76">
                    <mxGeometry x="21" y="580" width="179" height="30" as="geometry"/>
                </mxCell>
                <mxCell id="96" value="+WorkflowInfo&lt;span style=&quot;text-align: center;&quot;&gt;Mapper&lt;/span&gt;" style="rounded=0;whiteSpace=wrap;html=1;align=left;" vertex="1" parent="76">
                    <mxGeometry x="21" y="610" width="179" height="30" as="geometry"/>
                </mxCell>
                <mxCell id="97" value="+WorkItem&lt;span style=&quot;text-align: center;&quot;&gt;Mapper&lt;/span&gt;" style="rounded=0;whiteSpace=wrap;html=1;align=left;" vertex="1" parent="76">
                    <mxGeometry x="21" y="640" width="179" height="30" as="geometry"/>
                </mxCell>
                <mxCell id="98" value="Mapper" style="rounded=0;whiteSpace=wrap;html=1;" vertex="1" parent="1">
                    <mxGeometry x="-51" y="-470" width="80" height="20" as="geometry"/>
                </mxCell>
                <mxCell id="99" value="" style="swimlane;whiteSpace=wrap;html=1;" vertex="1" parent="1">
                    <mxGeometry x="620" y="-430" width="210" height="680" as="geometry">
                        <mxRectangle x="360" y="130" width="50" height="40" as="alternateBounds"/>
                    </mxGeometry>
                </mxCell>
                <mxCell id="100" value="+DeathRecord&lt;span style=&quot;text-align: center;&quot;&gt;Service&lt;/span&gt;" style="rounded=0;whiteSpace=wrap;html=1;align=left;" vertex="1" parent="99">
                    <mxGeometry x="21" y="40" width="179" height="30" as="geometry"/>
                </mxCell>
                <mxCell id="101" value="+DosingRecord&lt;span style=&quot;color: rgba(0, 0, 0, 0); font-family: monospace; font-size: 0px;&quot;&gt;%3CmxGraphModel%3E%3Croot%3E%3CmxCell%20id%3D%220%22%2F%3E%3CmxCell%20id%3D%221%22%20parent%3D%220%22%2F%3E%3CmxCell%20id%3D%222%22%20value%3D%22%2BDeathRecord%22%20style%3D%22rounded%3D0%3BwhiteSpace%3Dwrap%3Bhtml%3D1%3Balign%3Dleft%3B%22%20vertex%3D%221%22%20parent%3D%221%22%3E%3CmxGeometry%20x%3D%22381%22%20y%3D%22230%22%20width%3D%22150%22%20height%3D%2230%22%20as%3D%22geometry%22%2F%3E%3C%2FmxCell%3E%3C%2Froot%3E%3C%2FmxGraphModel%3E&lt;/span&gt;&lt;span style=&quot;color: rgba(0, 0, 0, 0); font-family: monospace; font-size: 0px;&quot;&gt;%3CmxGraphModel%3E%3Croot%3E%3CmxCell%20id%3D%220%22%2F%3E%3CmxCell%20id%3D%221%22%20parent%3D%220%22%2F%3E%3CmxCell%20id%3D%222%22%20value%3D%22%2BDeathRecord%22%20style%3D%22rounded%3D0%3BwhiteSpace%3Dwrap%3Bhtml%3D1%3Balign%3Dleft%3B%22%20vertex%3D%221%22%20parent%3D%221%22%3E%3CmxGeometry%20x%3D%22381%22%20y%3D%22230%22%20width%3D%22150%22%20height%3D%2230%22%20as%3D%22geometry%22%2F%3E%3C%2FmxCell%3E%3C%2Froot%3E%3C%2FmxGraphModel%3E&lt;/span&gt;&lt;font face=&quot;monospace&quot; color=&quot;rgba(0, 0, 0, 0)&quot;&gt;&lt;span style=&quot;font-size: 0px;&quot;&gt;DosingRecordControllerDosong&lt;/span&gt;&lt;/font&gt;&lt;span style=&quot;text-align: center;&quot;&gt;Service&lt;/span&gt;" style="rounded=0;whiteSpace=wrap;html=1;align=left;" vertex="1" parent="99">
                    <mxGeometry x="21" y="70" width="179" height="30" as="geometry"/>
                </mxCell>
                <mxCell id="102" value="+EggProductionRecord&lt;span style=&quot;text-align: center;&quot;&gt;Service&lt;/span&gt;" style="rounded=0;whiteSpace=wrap;html=1;align=left;" vertex="1" parent="99">
                    <mxGeometry x="21" y="100" width="179" height="30" as="geometry"/>
                </mxCell>
                <mxCell id="103" value="+FeedRecord&lt;span style=&quot;text-align: center;&quot;&gt;Service&lt;/span&gt;" style="rounded=0;whiteSpace=wrap;html=1;align=left;" vertex="1" parent="99">
                    <mxGeometry x="21" y="130" width="179" height="30" as="geometry"/>
                </mxCell>
                <mxCell id="104" value="+FertilizationRecord&lt;span style=&quot;text-align: center;&quot;&gt;Service&lt;/span&gt;" style="rounded=0;whiteSpace=wrap;html=1;align=left;" vertex="1" parent="99">
                    <mxGeometry x="21" y="160" width="179" height="30" as="geometry"/>
                </mxCell>
                <mxCell id="105" value="+IndividualDeathRcord&lt;span style=&quot;text-align: center;&quot;&gt;Service&lt;/span&gt;" style="rounded=0;whiteSpace=wrap;html=1;align=left;" vertex="1" parent="99">
                    <mxGeometry x="21" y="190" width="179" height="30" as="geometry"/>
                </mxCell>
                <mxCell id="106" value="+BatchInfo&lt;span style=&quot;text-align: center;&quot;&gt;Service&lt;/span&gt;" style="rounded=0;whiteSpace=wrap;html=1;align=left;" vertex="1" parent="99">
                    <mxGeometry x="21" y="220" width="179" height="30" as="geometry"/>
                </mxCell>
                <mxCell id="107" value="+FeedInfo&lt;span style=&quot;text-align: center;&quot;&gt;Service&lt;/span&gt;" style="rounded=0;whiteSpace=wrap;html=1;align=left;" vertex="1" parent="99">
                    <mxGeometry x="21" y="250" width="179" height="30" as="geometry"/>
                </mxCell>
                <mxCell id="108" value="+GoodsInfo&lt;span style=&quot;text-align: center;&quot;&gt;Service&lt;/span&gt;" style="rounded=0;whiteSpace=wrap;html=1;align=left;" vertex="1" parent="99">
                    <mxGeometry x="21" y="280" width="179" height="30" as="geometry"/>
                </mxCell>
                <mxCell id="109" value="+MedicineInfo&lt;span style=&quot;text-align: center;&quot;&gt;Service&lt;/span&gt;" style="rounded=0;whiteSpace=wrap;html=1;align=left;" vertex="1" parent="99">
                    <mxGeometry x="21" y="310" width="179" height="30" as="geometry"/>
                </mxCell>
                <mxCell id="110" value="+MessageInfo&lt;span style=&quot;text-align: center;&quot;&gt;Service&lt;/span&gt;" style="rounded=0;whiteSpace=wrap;html=1;align=left;" vertex="1" parent="99">
                    <mxGeometry x="21" y="340" width="179" height="30" as="geometry"/>
                </mxCell>
                <mxCell id="111" value="+PrivilegeTable&lt;span style=&quot;text-align: center;&quot;&gt;Service&lt;/span&gt;" style="rounded=0;whiteSpace=wrap;html=1;align=left;" vertex="1" parent="99">
                    <mxGeometry x="21" y="370" width="179" height="30" as="geometry"/>
                </mxCell>
                <mxCell id="112" value="+RolePri&lt;span style=&quot;text-align: center;&quot;&gt;Service&lt;/span&gt;" style="rounded=0;whiteSpace=wrap;html=1;align=left;" vertex="1" parent="99">
                    <mxGeometry x="21" y="400" width="179" height="30" as="geometry"/>
                </mxCell>
                <mxCell id="113" value="+UserBasicInfo&lt;span style=&quot;text-align: center;&quot;&gt;Service&lt;/span&gt;" style="rounded=0;whiteSpace=wrap;html=1;align=left;" vertex="1" parent="99">
                    <mxGeometry x="21" y="430" width="179" height="30" as="geometry"/>
                </mxCell>
                <mxCell id="114" value="+UserPasswordInfo&lt;span style=&quot;text-align: center;&quot;&gt;Service&lt;/span&gt;" style="rounded=0;whiteSpace=wrap;html=1;align=left;" vertex="1" parent="99">
                    <mxGeometry x="21" y="460" width="179" height="30" as="geometry"/>
                </mxCell>
                <mxCell id="115" value="+UserRole&lt;span style=&quot;text-align: center;&quot;&gt;Service&lt;/span&gt;" style="rounded=0;whiteSpace=wrap;html=1;align=left;" vertex="1" parent="99">
                    <mxGeometry x="21" y="490" width="179" height="30" as="geometry"/>
                </mxCell>
                <mxCell id="116" value="+IncomingRecord&lt;span style=&quot;text-align: center;&quot;&gt;Service&lt;/span&gt;" style="rounded=0;whiteSpace=wrap;html=1;align=left;" vertex="1" parent="99">
                    <mxGeometry x="21" y="520" width="179" height="30" as="geometry"/>
                </mxCell>
                <mxCell id="117" value="+OutputRecord&lt;span style=&quot;text-align: center;&quot;&gt;Service&lt;/span&gt;" style="rounded=0;whiteSpace=wrap;html=1;align=left;" vertex="1" parent="99">
                    <mxGeometry x="21" y="550" width="179" height="30" as="geometry"/>
                </mxCell>
                <mxCell id="118" value="+TransportRecord&lt;span style=&quot;text-align: center;&quot;&gt;Service&lt;/span&gt;" style="rounded=0;whiteSpace=wrap;html=1;align=left;" vertex="1" parent="99">
                    <mxGeometry x="21" y="580" width="179" height="30" as="geometry"/>
                </mxCell>
                <mxCell id="119" value="+WorkflowInfo&lt;span style=&quot;text-align: center;&quot;&gt;Service&lt;/span&gt;" style="rounded=0;whiteSpace=wrap;html=1;align=left;" vertex="1" parent="99">
                    <mxGeometry x="21" y="610" width="179" height="30" as="geometry"/>
                </mxCell>
                <mxCell id="120" value="+WorkItem&lt;span style=&quot;text-align: center;&quot;&gt;Service&lt;/span&gt;" style="rounded=0;whiteSpace=wrap;html=1;align=left;" vertex="1" parent="99">
                    <mxGeometry x="21" y="640" width="179" height="30" as="geometry"/>
                </mxCell>
                <mxCell id="121" value="Service" style="rounded=0;whiteSpace=wrap;html=1;" vertex="1" parent="1">
                    <mxGeometry x="620" y="-450" width="80" height="20" as="geometry"/>
                </mxCell>
                <mxCell id="145" value="" style="swimlane;whiteSpace=wrap;html=1;" vertex="1" parent="1">
                    <mxGeometry x="290" y="-440" width="210" height="680" as="geometry">
                        <mxRectangle x="360" y="130" width="50" height="40" as="alternateBounds"/>
                    </mxGeometry>
                </mxCell>
                <mxCell id="146" value="+DeathRecordImpl" style="rounded=0;whiteSpace=wrap;html=1;align=left;" vertex="1" parent="145">
                    <mxGeometry x="21" y="40" width="179" height="30" as="geometry"/>
                </mxCell>
                <mxCell id="147" value="+DosingRecord&lt;span style=&quot;color: rgba(0, 0, 0, 0); font-family: monospace; font-size: 0px;&quot;&gt;%3CmxGraphModel%3E%3Croot%3E%3CmxCell%20id%3D%220%22%2F%3E%3CmxCell%20id%3D%221%22%20parent%3D%220%22%2F%3E%3CmxCell%20id%3D%222%22%20value%3D%22%2BDeathRecord%22%20style%3D%22rounded%3D0%3BwhiteSpace%3Dwrap%3Bhtml%3D1%3Balign%3Dleft%3B%22%20vertex%3D%221%22%20parent%3D%221%22%3E%3CmxGeometry%20x%3D%22381%22%20y%3D%22230%22%20width%3D%22150%22%20height%3D%2230%22%20as%3D%22geometry%22%2F%3E%3C%2FmxCell%3E%3C%2Froot%3E%3C%2FmxGraphModel%3E&lt;/span&gt;&lt;span style=&quot;color: rgba(0, 0, 0, 0); font-family: monospace; font-size: 0px;&quot;&gt;%3CmxGraphModel%3E%3Croot%3E%3CmxCell%20id%3D%220%22%2F%3E%3CmxCell%20id%3D%221%22%20parent%3D%220%22%2F%3E%3CmxCell%20id%3D%222%22%20value%3D%22%2BDeathRecord%22%20style%3D%22rounded%3D0%3BwhiteSpace%3Dwrap%3Bhtml%3D1%3Balign%3Dleft%3B%22%20vertex%3D%221%22%20parent%3D%221%22%3E%3CmxGeometry%20x%3D%22381%22%20y%3D%22230%22%20width%3D%22150%22%20height%3D%2230%22%20as%3D%22geometry%22%2F%3E%3C%2FmxCell%3E%3C%2Froot%3E%3C%2FmxGraphModel%3E&lt;/span&gt;&lt;font face=&quot;monospace&quot; color=&quot;rgba(0, 0, 0, 0)&quot;&gt;&lt;span style=&quot;font-size: 0px;&quot;&gt;DosingRecordControllerDosong&lt;/span&gt;&lt;/font&gt;Impl" style="rounded=0;whiteSpace=wrap;html=1;align=left;" vertex="1" parent="145">
                    <mxGeometry x="21" y="70" width="179" height="30" as="geometry"/>
                </mxCell>
                <mxCell id="148" value="+EggProductionRecordImpl" style="rounded=0;whiteSpace=wrap;html=1;align=left;" vertex="1" parent="145">
                    <mxGeometry x="21" y="100" width="179" height="30" as="geometry"/>
                </mxCell>
                <mxCell id="149" value="+FeedRecordImpl" style="rounded=0;whiteSpace=wrap;html=1;align=left;" vertex="1" parent="145">
                    <mxGeometry x="21" y="130" width="179" height="30" as="geometry"/>
                </mxCell>
                <mxCell id="150" value="+FertilizationRecordImpl" style="rounded=0;whiteSpace=wrap;html=1;align=left;" vertex="1" parent="145">
                    <mxGeometry x="21" y="160" width="179" height="30" as="geometry"/>
                </mxCell>
                <mxCell id="151" value="+IndividualDeathRcordImpl" style="rounded=0;whiteSpace=wrap;html=1;align=left;" vertex="1" parent="145">
                    <mxGeometry x="21" y="190" width="179" height="30" as="geometry"/>
                </mxCell>
                <mxCell id="152" value="+BatchInfoImpl" style="rounded=0;whiteSpace=wrap;html=1;align=left;" vertex="1" parent="145">
                    <mxGeometry x="21" y="220" width="179" height="30" as="geometry"/>
                </mxCell>
                <mxCell id="153" value="+FeedInfoImpl" style="rounded=0;whiteSpace=wrap;html=1;align=left;" vertex="1" parent="145">
                    <mxGeometry x="21" y="250" width="179" height="30" as="geometry"/>
                </mxCell>
                <mxCell id="154" value="+GoodsInfoImpl" style="rounded=0;whiteSpace=wrap;html=1;align=left;" vertex="1" parent="145">
                    <mxGeometry x="21" y="280" width="179" height="30" as="geometry"/>
                </mxCell>
                <mxCell id="155" value="+MedicineInfoImpl" style="rounded=0;whiteSpace=wrap;html=1;align=left;" vertex="1" parent="145">
                    <mxGeometry x="21" y="310" width="179" height="30" as="geometry"/>
                </mxCell>
                <mxCell id="156" value="+MessageInfoImpl" style="rounded=0;whiteSpace=wrap;html=1;align=left;" vertex="1" parent="145">
                    <mxGeometry x="21" y="340" width="179" height="30" as="geometry"/>
                </mxCell>
                <mxCell id="157" value="+PrivilegeTableImpl" style="rounded=0;whiteSpace=wrap;html=1;align=left;" vertex="1" parent="145">
                    <mxGeometry x="21" y="370" width="179" height="30" as="geometry"/>
                </mxCell>
                <mxCell id="158" value="+RolePriImpl" style="rounded=0;whiteSpace=wrap;html=1;align=left;" vertex="1" parent="145">
                    <mxGeometry x="21" y="400" width="179" height="30" as="geometry"/>
                </mxCell>
                <mxCell id="159" value="+UserBasicInfoImpl" style="rounded=0;whiteSpace=wrap;html=1;align=left;" vertex="1" parent="145">
                    <mxGeometry x="21" y="430" width="179" height="30" as="geometry"/>
                </mxCell>
                <mxCell id="160" value="+UserPasswordInfoImpl" style="rounded=0;whiteSpace=wrap;html=1;align=left;" vertex="1" parent="145">
                    <mxGeometry x="21" y="460" width="179" height="30" as="geometry"/>
                </mxCell>
                <mxCell id="161" value="+UserRoleImpl" style="rounded=0;whiteSpace=wrap;html=1;align=left;" vertex="1" parent="145">
                    <mxGeometry x="21" y="490" width="179" height="30" as="geometry"/>
                </mxCell>
                <mxCell id="162" value="+IncomingRecordImpl" style="rounded=0;whiteSpace=wrap;html=1;align=left;" vertex="1" parent="145">
                    <mxGeometry x="21" y="520" width="179" height="30" as="geometry"/>
                </mxCell>
                <mxCell id="163" value="+OutputRecordImpl" style="rounded=0;whiteSpace=wrap;html=1;align=left;" vertex="1" parent="145">
                    <mxGeometry x="21" y="550" width="179" height="30" as="geometry"/>
                </mxCell>
                <mxCell id="164" value="+TransportRecordImpl" style="rounded=0;whiteSpace=wrap;html=1;align=left;" vertex="1" parent="145">
                    <mxGeometry x="21" y="580" width="179" height="30" as="geometry"/>
                </mxCell>
                <mxCell id="165" value="+WorkflowInfoImpl" style="rounded=0;whiteSpace=wrap;html=1;align=left;" vertex="1" parent="145">
                    <mxGeometry x="21" y="610" width="179" height="30" as="geometry"/>
                </mxCell>
                <mxCell id="166" value="+WorkItemImpl" style="rounded=0;whiteSpace=wrap;html=1;align=left;" vertex="1" parent="145">
                    <mxGeometry x="21" y="640" width="179" height="30" as="geometry"/>
                </mxCell>
                <mxCell id="167" value="Implement" style="rounded=0;whiteSpace=wrap;html=1;" vertex="1" parent="1">
                    <mxGeometry x="290" y="-460" width="80" height="20" as="geometry"/>
                </mxCell>
                <mxCell id="169" value="" style="swimlane;whiteSpace=wrap;html=1;" vertex="1" parent="1">
                    <mxGeometry x="710" y="340" width="210" height="120" as="geometry">
                        <mxRectangle x="360" y="130" width="50" height="40" as="alternateBounds"/>
                    </mxGeometry>
                </mxCell>
                <mxCell id="170" value="+RedisConfig" style="rounded=0;whiteSpace=wrap;html=1;align=left;" vertex="1" parent="169">
                    <mxGeometry x="21" y="40" width="179" height="30" as="geometry"/>
                </mxCell>
                <mxCell id="171" value="+CorsConfig" style="rounded=0;whiteSpace=wrap;html=1;align=left;" vertex="1" parent="169">
                    <mxGeometry x="21" y="70" width="179" height="30" as="geometry"/>
                </mxCell>
                <mxCell id="191" value="Config" style="rounded=0;whiteSpace=wrap;html=1;" vertex="1" parent="1">
                    <mxGeometry x="710" y="320" width="80" height="20" as="geometry"/>
                </mxCell>
                <mxCell id="192" value="" style="swimlane;whiteSpace=wrap;html=1;" vertex="1" parent="1">
                    <mxGeometry x="225" y="340" width="210" height="170" as="geometry">
                        <mxRectangle x="360" y="130" width="50" height="40" as="alternateBounds"/>
                    </mxGeometry>
                </mxCell>
                <mxCell id="193" value="+SnowFlakeGenerateIdWorker" style="rounded=0;whiteSpace=wrap;html=1;align=left;" vertex="1" parent="192">
                    <mxGeometry x="21" y="40" width="179" height="30" as="geometry"/>
                </mxCell>
                <mxCell id="194" value="+Result" style="rounded=0;whiteSpace=wrap;html=1;align=left;" vertex="1" parent="192">
                    <mxGeometry x="21" y="70" width="179" height="30" as="geometry"/>
                </mxCell>
                <mxCell id="196" value="+ResultEnum" style="rounded=0;whiteSpace=wrap;html=1;align=left;" vertex="1" parent="192">
                    <mxGeometry x="21" y="100" width="179" height="30" as="geometry"/>
                </mxCell>
                <mxCell id="197" value="+ResultUtil" style="rounded=0;whiteSpace=wrap;html=1;align=left;" vertex="1" parent="192">
                    <mxGeometry x="21" y="130" width="179" height="30" as="geometry"/>
                </mxCell>
                <mxCell id="195" value="Utils" style="rounded=0;whiteSpace=wrap;html=1;" vertex="1" parent="1">
                    <mxGeometry x="225" y="320" width="80" height="20" as="geometry"/>
                </mxCell>
                <mxCell id="203" value="&lt;font style=&quot;font-size: 14px;&quot;&gt;&amp;lt;&amp;lt;import&amp;gt;&amp;gt;&lt;/font&gt;" style="endArrow=open;endSize=12;dashed=1;html=1;exitX=1;exitY=0.5;exitDx=0;exitDy=0;" edge="1" parent="1" source="30">
                    <mxGeometry width="160" relative="1" as="geometry">
                        <mxPoint x="110" y="650" as="sourcePoint"/>
                        <mxPoint x="470" y="650" as="targetPoint"/>
                    </mxGeometry>
                </mxCell>
                <mxCell id="204" value="&lt;font style=&quot;font-size: 14px;&quot;&gt;&amp;lt;&amp;lt;import&amp;gt;&amp;gt;&lt;/font&gt;" style="endArrow=open;endSize=12;dashed=1;html=1;entryX=0;entryY=0.5;entryDx=0;entryDy=0;" edge="1" parent="1" target="192">
                    <mxGeometry width="160" relative="1" as="geometry">
                        <mxPoint x="80" y="430" as="sourcePoint"/>
                        <mxPoint x="480" y="660" as="targetPoint"/>
                    </mxGeometry>
                </mxCell>
                <mxCell id="205" value="&lt;font style=&quot;font-size: 14px;&quot;&gt;&amp;lt;&amp;lt;import&amp;gt;&amp;gt;&lt;/font&gt;" style="endArrow=open;endSize=12;dashed=1;html=1;exitX=0.75;exitY=1;exitDx=0;exitDy=0;entryX=0.5;entryY=0;entryDx=0;entryDy=0;" edge="1" parent="1" source="145" target="4">
                    <mxGeometry width="160" relative="1" as="geometry">
                        <mxPoint x="140" y="660" as="sourcePoint"/>
                        <mxPoint x="480" y="660" as="targetPoint"/>
                    </mxGeometry>
                </mxCell>
                <mxCell id="206" value="&lt;font style=&quot;font-size: 14px;&quot;&gt;&amp;lt;&amp;lt;import&amp;gt;&amp;gt;&lt;/font&gt;" style="endArrow=open;endSize=12;dashed=1;html=1;exitX=0.25;exitY=1;exitDx=0;exitDy=0;entryX=0.5;entryY=0;entryDx=0;entryDy=0;" edge="1" parent="1" source="99" target="4">
                    <mxGeometry width="160" relative="1" as="geometry">
                        <mxPoint x="457.5" y="250" as="sourcePoint"/>
                        <mxPoint x="580" y="360" as="targetPoint"/>
                    </mxGeometry>
                </mxCell>
                <mxCell id="207" value="&lt;font style=&quot;font-size: 14px;&quot;&gt;&amp;lt;&amp;lt;import&amp;gt;&amp;gt;&lt;/font&gt;" style="endArrow=open;endSize=12;dashed=1;html=1;exitX=0;exitY=0.5;exitDx=0;exitDy=0;" edge="1" parent="1" source="145">
                    <mxGeometry width="160" relative="1" as="geometry">
                        <mxPoint x="692.5" y="260" as="sourcePoint"/>
                        <mxPoint x="160" y="-100" as="targetPoint"/>
                    </mxGeometry>
                </mxCell>
                <mxCell id="208" value="&lt;font style=&quot;font-size: 14px;&quot;&gt;&amp;lt;&amp;lt;import&amp;gt;&amp;gt;&lt;/font&gt;" style="endArrow=open;endSize=12;dashed=1;html=1;exitX=1;exitY=0.5;exitDx=0;exitDy=0;" edge="1" parent="1" source="145">
                    <mxGeometry width="160" relative="1" as="geometry">
                        <mxPoint x="300" y="-90" as="sourcePoint"/>
                        <mxPoint x="620" y="-100" as="targetPoint"/>
                    </mxGeometry>
                </mxCell>
                <mxCell id="209" value="&lt;font style=&quot;font-size: 14px;&quot;&gt;&amp;lt;&amp;lt;import&amp;gt;&amp;gt;&lt;/font&gt;" style="endArrow=open;endSize=12;dashed=1;html=1;entryX=0.5;entryY=0;entryDx=0;entryDy=0;edgeStyle=elbowEdgeStyle;elbow=vertical;exitX=0.25;exitY=0;exitDx=0;exitDy=0;" edge="1" parent="1" source="30" target="99">
                    <mxGeometry x="0.3976" width="160" relative="1" as="geometry">
                        <mxPoint x="-80" y="290" as="sourcePoint"/>
                        <mxPoint x="235" y="435" as="targetPoint"/>
                        <Array as="points">
                            <mxPoint x="330" y="-490"/>
                        </Array>
                        <mxPoint as="offset"/>
                    </mxGeometry>
                </mxCell>
            </root>
        </mxGraphModel>
    </diagram>
</mxfile>